# xmcd
#
# Track frame offsets: 
#        150
#        21931
#        39275
#        55504
#        68390
#        84038
#        98956
#        111361
#        132785
#        149005
#        162939
#        182451
#        198093
#        212296
#        229179
#
# Disc length: 3256 seconds
#
# Revision: 5
# Processed by: cddbd v1.5.2PL0 Copyright (c) Steve Scherf et al.
# Submitted via: ExactAudioCopyFreeDBPlugin 1.0
#
DISCID=b70cb60f
DTITLE=Kenny Rogers - Have I told you lately that I love you
DYEAR=2002
DGENRE=Country
TTITLE0=Have I told you lately that I love you
TTITLE1=I swear
TTITLE2=The wind beneath my wings
TTITLE3=As time goes by
TTITLE4=Unchained melody
TTITLE5=Crazy
TTITLE6=Somewhere my love
TTITLE7=Always and forever
TTITLE8=Evergreen
TTITLE9=You send me
TTITLE10=She believes in me
TTITLE11=Through the years
TTITLE12=You light up my life
TTITLE13=Stardust
TTITLE14=I cant help falling in love
EXTD=Kenny Rogers - Have I told you lately that I love you
EXTT0=
EXTT1=
EXTT2=
EXTT3=
EXTT4=
EXTT5=
EXTT6=
EXTT7=
EXTT8=
EXTT9=
EXTT10=
EXTT11=
EXTT12=
EXTT13=
EXTT14=
PLAYORDER=
